<svg width="20" height="18" viewBox="0 0 20 18" fill="none" xmlns="http://www.w3.org/2000/svg">
<g clip-path="url(#clip0)">
<path d="M19.4439 10.0768C18.8878 9.73536 18.3317 9.3939 17.7756 9.04268L17.4049 8.80853L17.4244 8.78902C18.1073 8.36951 18.7805 7.95 19.4634 7.53049C19.6195 7.43293 19.8341 7.27683 19.9415 6.96463C20.1073 6.47683 19.922 5.96951 19.4634 5.68658L16.9073 4.1061C14.7805 2.78902 12.6439 1.47195 10.5171 0.145121C10.1756 -0.0597572 9.8439 -0.0597572 9.49268 0.154877C6.49756 2.00854 3.52195 3.85244 0.536585 5.68658C0.17561 5.91097 0 6.22317 0 6.62317C0 7.02317 0.185366 7.33536 0.546342 7.55C0.917073 7.76463 1.28781 7.99878 1.65854 8.22317L2.60488 8.80853L2.4 8.93536C1.77561 9.32561 1.15122 9.7061 0.517073 10.0866C0.0975609 10.35 0 10.7207 0 10.9939C0 11.2671 0.0878049 11.6573 0.517073 11.9207C0.8 12.0866 1.08293 12.2622 1.3561 12.4378L4.49756 14.3793C5.19024 14.8085 5.89268 15.2378 6.58537 15.6671C7.54146 16.2524 8.48781 16.8378 9.43415 17.4329C9.62927 17.55 9.81464 17.6183 10.0098 17.6183C10.1951 17.6183 10.3805 17.5598 10.5756 17.4427C11.5902 16.8085 12.6049 16.1841 13.6293 15.5598L17.8049 12.9646C18.3512 12.6232 18.8976 12.2915 19.4439 11.95C19.8146 11.7256 19.9902 11.4037 19.9902 11.0037C19.9902 10.6037 19.8049 10.2915 19.4439 10.0768ZM4.47805 9.96951L6.36098 11.1305C7.38537 11.7646 8.40976 12.389 9.43415 13.0329C9.83415 13.2866 10.2049 13.2866 10.6049 13.0329C11.6293 12.3988 12.6537 11.7646 13.6878 11.1305L15.6098 9.96951C16.1073 10.2817 16.6146 10.5939 17.1317 10.9159L17.278 11.0037L14.7024 12.5841C13.1415 13.5402 11.5805 14.4963 9.99024 15.4719C8.20488 14.3695 6.42927 13.2671 4.6439 12.1646L2.76098 11.0037L3.25854 10.7012C3.63902 10.4573 4.03902 10.2134 4.47805 9.96951ZM10.0098 11.1012C7.90244 9.7939 5.79512 8.48658 3.68781 7.18902L2.76098 6.61341L10 2.13536C12.0488 3.40366 14.0976 4.67195 16.1366 5.93049L17.239 6.61341L10.0098 11.1012Z" fill="#77869F"/>
<g clip-path="url(#clip1)">
<path d="M19.4439 10.0768C18.8878 9.73536 18.3317 9.3939 17.7756 9.04268L17.4049 8.80853L17.4244 8.78902C18.1073 8.36951 18.7805 7.95 19.4634 7.53049C19.6195 7.43293 19.8341 7.27683 19.9415 6.96463C20.1073 6.47683 19.922 5.96951 19.4634 5.68658L16.9073 4.1061C14.7805 2.78902 12.6439 1.47195 10.5171 0.145121C10.1756 -0.0597572 9.8439 -0.0597572 9.49268 0.154877C6.49756 2.00854 3.52195 3.85244 0.536585 5.68658C0.17561 5.91097 0 6.22317 0 6.62317C0 7.02317 0.185366 7.33536 0.546342 7.55C0.917073 7.76463 1.28781 7.99878 1.65854 8.22317L2.60488 8.80853L2.4 8.93536C1.77561 9.32561 1.15122 9.7061 0.517073 10.0866C0.0975609 10.35 0 10.7207 0 10.9939C0 11.2671 0.0878049 11.6573 0.517073 11.9207C0.8 12.0866 1.08293 12.2622 1.3561 12.4378L4.49756 14.3793C5.19024 14.8085 5.89268 15.2378 6.58537 15.6671C7.54146 16.2524 8.48781 16.8378 9.43415 17.4329C9.62927 17.55 9.81464 17.6183 10.0098 17.6183C10.1951 17.6183 10.3805 17.5598 10.5756 17.4427C11.5902 16.8085 12.6049 16.1841 13.6293 15.5598L17.8049 12.9646C18.3512 12.6232 18.8976 12.2915 19.4439 11.95C19.8146 11.7256 19.9902 11.4037 19.9902 11.0037C19.9902 10.6037 19.8049 10.2915 19.4439 10.0768ZM4.47805 9.96951L6.36098 11.1305C7.38537 11.7646 8.40976 12.389 9.43415 13.0329C9.83415 13.2866 10.2049 13.2866 10.6049 13.0329C11.6293 12.3988 12.6537 11.7646 13.6878 11.1305L15.6098 9.96951C16.1073 10.2817 16.6146 10.5939 17.1317 10.9159L17.278 11.0037L14.7024 12.5841C13.1415 13.5402 11.5805 14.4963 9.99024 15.4719C8.20488 14.3695 6.42927 13.2671 4.6439 12.1646L2.76098 11.0037L3.25854 10.7012C3.63902 10.4573 4.03902 10.2134 4.47805 9.96951ZM10.0098 11.1012C7.90244 9.7939 5.79512 8.48658 3.68781 7.18902L2.76098 6.61341L10 2.13536C12.0488 3.40366 14.0976 4.67195 16.1366 5.93049L17.239 6.61341L10.0098 11.1012Z" fill="#77869F"/>
</g>
</g>
<defs>
<clipPath id="clip0">
<rect width="20" height="17.6098" fill="white"/>
</clipPath>
<clipPath id="clip1">
<rect width="20" height="17.6098" fill="white"/>
</clipPath>
</defs>
</svg>
