<svg width="48" height="75" viewBox="0 0 48 75" fill="none" xmlns="http://www.w3.org/2000/svg">
<path d="M45.1159 56.8042C42.7681 54.5833 39.9126 53.5045 37.6916 52.743C36.5494 52.3623 35.4072 52.045 34.265 51.7912C34.7726 50.9028 35.2803 50.0144 35.7879 49.1261C38.9607 43.415 42.2604 37.2598 44.6717 30.597C46.3216 26.1551 46.8292 22.3477 46.1947 18.6673C44.4179 8.32399 35.2803 0.328562 24.8735 0.0112835C18.4011 -0.179084 12.8169 2.04187 8.24813 6.48377C3.42549 11.3064 1.20454 17.0809 1.58527 23.7437C1.77564 26.3454 2.53711 28.6933 3.5524 31.295C6.02718 37.7675 9.19997 43.7958 12.3093 49.3799L13.7688 51.9181C12.1824 52.2354 10.7229 52.6796 9.32688 53.1872C6.53482 54.1391 4.50424 55.2813 2.85439 56.8042C0.633437 58.8348 -0.254944 61.0558 0.0623347 63.594C0.379614 66.2591 2.02946 68.0359 3.23512 69.1146C4.94843 70.5741 6.97901 71.7163 9.64416 72.6682C13.1342 73.8738 17.005 74.5718 21.4469 74.7622C22.3988 74.8257 23.3506 74.8257 24.3024 74.8257C29.5693 74.8257 34.0112 74.1911 38.1358 72.7951C41.4355 71.6529 43.8468 70.2568 45.687 68.2263C47.4003 66.386 48.1618 64.4189 47.9714 62.2614C47.8445 60.2308 46.8927 58.4541 45.1159 56.8042ZM6.66173 61.7538C7.48666 60.7385 8.69232 60.1039 9.83452 59.5328C11.8017 58.581 14.0861 57.9464 17.0685 57.4388C18.0203 59.0252 18.9722 60.5481 19.924 62.1345C20.4316 63.0229 21.0662 63.9113 21.8277 64.7362C22.5891 65.4977 23.2871 65.688 24.1121 65.8149C24.937 65.8149 25.6985 65.4342 26.3965 64.6727C27.0945 63.9113 27.6021 63.0863 28.1098 62.3249L30.9653 57.5022C33.2497 57.883 35.9783 58.5175 38.5165 59.7232C39.6587 60.2943 40.4202 60.8019 41.0548 61.4365C41.372 61.8172 41.8162 62.3249 41.8162 62.8325C41.8162 63.3402 41.4355 63.8478 41.0548 64.1651C39.5953 65.6246 37.7551 66.386 35.9148 66.9571C32.4248 68.0993 28.3636 68.6704 23.4141 68.6704C18.4645 68.607 14.3399 67.909 10.7864 66.4495C9.19997 65.8149 8.12122 65.1804 7.23284 64.4189C7.04247 64.2285 6.8521 64.0382 6.66173 63.8478C6.02718 63.0863 6.02718 62.5787 6.66173 61.7538ZM7.67703 22.4112C7.93085 14.0985 13.7688 7.43561 21.8911 6.29341C22.5891 6.16649 23.2871 6.16649 23.9852 6.16649C31.346 6.16649 38.1993 11.4968 39.8491 18.8577C40.5471 21.7766 40.2298 24.8225 38.9607 28.376C36.9301 33.9601 34.2015 39.1635 31.5999 43.9861C29.3789 48.1108 26.9041 52.2988 23.9852 56.9946C19.5433 49.7606 14.911 41.9556 11.1036 33.5794C9.89798 30.9142 8.56541 27.7415 7.86739 24.4418C7.74048 23.7437 7.67703 23.0457 7.67703 22.4112Z" fill="#77869F"/>
<path d="M23.9865 34.0236C27.0323 34.0236 29.9513 32.8179 32.1722 30.597C34.3297 28.4395 35.5354 25.5205 35.5354 22.4746C35.5354 16.1291 30.332 10.9257 23.9865 10.9257C20.9406 10.9257 18.0216 12.1313 15.8007 14.3523C13.6432 16.5098 12.4375 19.4288 12.4375 22.5381C12.501 28.8837 17.6409 34.0236 23.9865 34.0236ZM18.1485 22.4746C18.1485 19.2384 20.8137 16.6367 24.0499 16.6367C25.6363 16.6367 27.0958 17.2713 28.1745 18.35C29.2533 19.4288 29.8878 20.9517 29.8878 22.5381C29.8878 25.7743 27.2227 28.376 23.9865 28.376C22.4001 28.376 20.9406 27.7415 19.8618 26.6627C18.7196 25.5205 18.1485 24.061 18.1485 22.4746Z" fill="#77869F"/>
</svg>
