<?xml version="1.0" encoding="utf-8"?>
<!-- Generator: Adobe Illustrator 18.0.0, SVG Export Plug-In . SVG Version: 6.00 Build 0)  -->
<!DOCTYPE svg PUBLIC "-//W3C//DTD SVG 1.1//EN" "http://www.w3.org/Graphics/SVG/1.1/DTD/svg11.dtd">
<svg version="1.1" id="Layer_1" xmlns="http://www.w3.org/2000/svg" xmlns:xlink="http://www.w3.org/1999/xlink" x="0px" y="0px"
	 viewBox="262 200 38 38" enable-background="new 262 200 38 38" xml:space="preserve">
<desc>Created with Highcharts 4.2.0</desc>
<g>
	<g transform="translate(10,10) scale(1 1)">
	</g>
	<circle fill="none" stroke="#6B6B6B" stroke-miterlimit="10" cx="281" cy="219" r="18.5"/>
	<circle fill="#FFFFFF" stroke="#6B6B6B" stroke-miterlimit="10" cx="281" cy="219" r="4.3"/>
</g>
<g transform="translate(0,-9999)">
	<path fill="none" stroke="#000000" stroke-width="5" stroke-opacity="5.000000e-002" d="M4.5,1.5h10c3,0,3,0,3,3v10c0,3,0,3-3,3
		h-10c-3,0-3,0-3-3v-10C1.5,1.5,1.5,1.5,4.5,1.5"/>
	<path fill="none" stroke="#000000" stroke-width="3" stroke-opacity="0.1" d="M4.5,1.5h10c3,0,3,0,3,3v10c0,3,0,3-3,3h-10
		c-3,0-3,0-3-3v-10C1.5,1.5,1.5,1.5,4.5,1.5"/>
	<path fill="none" stroke="#000000" stroke-opacity="0.15" d="M4.5,1.5h10c3,0,3,0,3,3v10c0,3,0,3-3,3h-10c-3,0-3,0-3-3v-10
		C1.5,1.5,1.5,1.5,4.5,1.5"/>
	<path fill="#F9F9F9" fill-opacity="0.85" d="M3.5,0.5h10c3,0,3,0,3,3v10c0,3,0,3-3,3h-10c-3,0-3,0-3-3v-10C0.5,0.5,0.5,0.5,3.5,0.5
		"/>
</g>
</svg>
