<?xml version="1.0" encoding="utf-8"?>
<!-- Generator: Adobe Illustrator 22.1.0, SVG Export Plug-In . SVG Version: 6.00 Build 0)  -->
<svg version="1.0" id="Layer_1" xmlns="http://www.w3.org/2000/svg" xmlns:xlink="http://www.w3.org/1999/xlink" x="0px" y="0px"
	 viewBox="0 0 47.9 71.9" style="enable-background:new 0 0 47.9 71.9;" xml:space="preserve">
<style type="text/css">
	.st0{fill:#010101;}
</style>
<g>
	<path class="st0" d="M24,0C10.8,0,0,10.8,0,24c0,4.8,1.4,9.2,3.8,12.9L15,54.3c-0.6,0.3-1.2,0.5-1.8,0.8c-2.9,1.5-5.2,4-5.2,7.2
		s2.3,5.7,5.2,7.2c2.9,1.6,6.7,2.4,10.8,2.4c4.1,0,7.8-0.9,10.7-2.4c2.9-1.5,5.2-4,5.2-7.2s-2.3-5.6-5.2-7.2
		c-0.6-0.3-1.1-0.6-1.8-0.8l11.2-17.4c2.4-3.7,3.8-8.2,3.8-12.9C48,10.8,37.2,0,24,0L24,0z M24,4.8c10.6,0,19.2,8.6,19.2,19.2
		c0,3.8-1.1,7.4-3,10.4L24,59.6L7.8,34.4c-1.9-3-3.1-6.5-3.1-10.4C4.8,13.4,13.4,4.8,24,4.8L24,4.8z M24,13.6
		c-5.7,0-10.4,4.7-10.4,10.4c0,5.7,4.7,10.4,10.4,10.4c5.7,0,10.4-4.7,10.4-10.4C34.4,18.3,29.7,13.6,24,13.6L24,13.6z M24,18.4
		c3.1,0,5.6,2.5,5.6,5.6s-2.5,5.6-5.6,5.6s-5.6-2.5-5.6-5.6S20.9,18.4,24,18.4L24,18.4z M17.7,58.5l4.3,6.7c0.4,0.6,1.2,1.1,2,1.1
		s1.6-0.4,2-1.1l4.3-6.7c0.8,0.3,1.5,0.5,2.2,0.9c2,1,2.7,2.2,2.7,2.9c0,0.8-0.7,1.9-2.7,3s-5.1,1.8-8.5,1.8s-6.5-0.8-8.5-1.8
		s-2.7-2.2-2.7-3c0-0.7,0.7-1.9,2.7-2.9C16.1,59.1,16.9,58.8,17.7,58.5L17.7,58.5z"/>
</g>
</svg>
